<?xml version="1.0" standalone="no"?>
<!DOCTYPE svg PUBLIC "-//W3C//DTD SVG 20010904//EN"
 "http://www.w3.org/TR/2001/REC-SVG-20010904/DTD/svg10.dtd">
<svg version="1.0" xmlns="http://www.w3.org/2000/svg"
 width="943.000000pt" height="644.000000pt" viewBox="0 0 943.000000 644.000000"
 preserveAspectRatio="xMidYMid meet">

<g transform="translate(0.000000,644.000000) scale(0.100000,-0.100000)"
fill="#DEDEDE" stroke="none">
<path d="M5765 6084 c-292 -45 -650 -218 -910 -440 -307 -263 -541 -525 -1474
-1644 -300 -360 -633 -755 -739 -877 l-193 -223 -77 0 c-118 0 -430 -19 -597
-36 -502 -51 -928 -183 -1219 -377 -104 -70 -251 -207 -295 -276 -59 -91 -71
-213 -31 -316 78 -204 404 -375 715 -375 116 0 219 19 382 71 453 145 936 398
1203 630 l65 56 302 6 c300 6 659 -3 928 -23 265 -20 774 -83 980 -120 87 -16
325 -77 362 -92 l30 -13 -72 -133 c-124 -227 -161 -343 -143 -441 20 -112 117
-298 176 -339 76 -53 104 -30 182 150 78 181 155 330 180 353 l22 20 37 -45
c87 -107 198 -206 272 -243 171 -84 357 -106 558 -68 379 73 1035 326 1346
519 140 87 280 197 395 312 210 209 305 393 317 615 16 284 -85 444 -363 578
-88 42 -118 63 -109 76 3 6 32 24 63 40 139 71 404 274 542 417 303 313 339
516 147 812 -126 193 -258 292 -496 371 -212 70 -435 96 -765 88 -249 -5 -323
-15 -630 -83 -994 -221 -1972 -762 -2185 -1210 -66 -137 -81 -264 -43 -361 42
-111 162 -256 245 -299 170 -89 386 -42 691 148 253 159 433 327 586 549 44
63 48 75 36 87 -21 21 -50 10 -146 -53 -91 -59 -385 -207 -591 -298 -288 -127
-529 -184 -529 -125 0 74 329 334 660 522 405 230 761 375 1175 480 448 112
798 153 1247 143 481 -10 678 -69 678 -203 0 -74 -101 -208 -244 -322 -94 -75
-402 -273 -564 -361 -458 -250 -1058 -481 -1025 -393 7 18 723 796 801 870 41
39 44 45 39 78 -8 46 -53 113 -85 125 -41 16 -84 10 -131 -18 -191 -110 -840
-700 -1441 -1310 -286 -290 -465 -492 -552 -626 -101 -154 -253 -377 -258
-376 -3 0 -19 19 -37 42 -53 71 -257 271 -355 350 -237 189 -344 239 -643 301
-164 34 -224 41 -570 71 -165 14 -322 29 -349 33 l-48 7 93 105 c187 210 486
600 909 1185 434 602 523 715 758 965 249 264 412 405 619 536 204 129 428
217 467 185 95 -79 -444 -633 -1094 -1127 -117 -88 -368 -255 -487 -324 -91
-52 -99 -73 -33 -78 332 -26 1112 336 1483 688 185 175 389 440 436 564 69
184 16 341 -149 441 -124 75 -246 91 -455 59z m2347 -2996 c44 -20 62 -35 74
-62 16 -32 16 -40 1 -100 -20 -79 -49 -131 -125 -222 -161 -192 -483 -422
-867 -620 -510 -263 -971 -406 -1385 -430 -124 -7 -185 3 -213 34 -16 18 8 52
470 669 269 358 500 658 515 667 42 26 65 20 92 -21 41 -65 71 -86 118 -85 24
0 167 32 318 71 246 63 382 91 590 120 36 5 130 9 210 7 134 -1 150 -4 202
-28z m-6317 -827 c-30 -27 -188 -138 -268 -187 -203 -126 -479 -235 -642 -254
-185 -21 -325 -9 -360 30 -55 61 57 156 275 234 107 39 390 110 560 140 189
34 456 57 435 37z"/>
</g>
</svg>
